<mxfile host="app.diagrams.net" modified="2020-06-10T10:45:46.134Z" agent="5.0 (Windows NT 10.0; Win64; x64) AppleWebKit/537.36 (KHTML, like Gecko) Chrome/83.0.4103.97 Safari/537.36" etag="7zwu1Tn4p_EZNZsXmc5r" version="13.2.1" type="github">
  <diagram id="RC0_b64wAdmyMu5P7v91" name="Page-1">
    <mxGraphModel dx="798" dy="958" grid="0" gridSize="10" guides="1" tooltips="1" connect="1" arrows="1" fold="1" page="0" pageScale="1" pageWidth="1100" pageHeight="850" math="0" shadow="0">
      <root>
        <mxCell id="0" />
        <mxCell id="1" parent="0" />
        <mxCell id="IA-KHhUkWGW9DsU5HXB7-1" value="Системный администратор" style="shape=umlActor;verticalLabelPosition=bottom;labelBackgroundColor=#ffffff;verticalAlign=top;html=1;" parent="1" vertex="1">
          <mxGeometry x="120" y="220" width="30" height="60" as="geometry" />
        </mxCell>
        <mxCell id="xqiQ21x0fGV3KOlMGPGb-1" value="Операции с данными в БД" style="ellipse;whiteSpace=wrap;html=1;" parent="1" vertex="1">
          <mxGeometry x="260" y="220" width="140" height="70" as="geometry" />
        </mxCell>
        <mxCell id="xqiQ21x0fGV3KOlMGPGb-2" value="Ввод данных в БД" style="ellipse;whiteSpace=wrap;html=1;" parent="1" vertex="1">
          <mxGeometry x="490" y="80" width="140" height="70" as="geometry" />
        </mxCell>
        <mxCell id="xqiQ21x0fGV3KOlMGPGb-3" value="Изменение данных в БД" style="ellipse;whiteSpace=wrap;html=1;" parent="1" vertex="1">
          <mxGeometry x="490" y="170" width="140" height="70" as="geometry" />
        </mxCell>
        <mxCell id="xqiQ21x0fGV3KOlMGPGb-4" value="Удаление данных в БД" style="ellipse;whiteSpace=wrap;html=1;" parent="1" vertex="1">
          <mxGeometry x="490" y="260" width="140" height="70" as="geometry" />
        </mxCell>
        <mxCell id="xqiQ21x0fGV3KOlMGPGb-5" value="Запросы к данным в БД" style="ellipse;whiteSpace=wrap;html=1;" parent="1" vertex="1">
          <mxGeometry x="490" y="350" width="140" height="70" as="geometry" />
        </mxCell>
        <mxCell id="xqiQ21x0fGV3KOlMGPGb-7" value="" style="endArrow=classic;html=1;entryX=0;entryY=0.5;entryDx=0;entryDy=0;" parent="1" target="xqiQ21x0fGV3KOlMGPGb-1" edge="1">
          <mxGeometry width="50" height="50" relative="1" as="geometry">
            <mxPoint x="160" y="255" as="sourcePoint" />
            <mxPoint x="230" y="110" as="targetPoint" />
          </mxGeometry>
        </mxCell>
        <mxCell id="xqiQ21x0fGV3KOlMGPGb-8" value="include" style="html=1;verticalAlign=bottom;endArrow=open;dashed=1;endSize=8;entryX=0;entryY=0.5;entryDx=0;entryDy=0;exitX=1;exitY=0.5;exitDx=0;exitDy=0;" parent="1" source="xqiQ21x0fGV3KOlMGPGb-1" target="xqiQ21x0fGV3KOlMGPGb-2" edge="1">
          <mxGeometry relative="1" as="geometry">
            <mxPoint x="290" y="180" as="sourcePoint" />
            <mxPoint x="390" y="120" as="targetPoint" />
          </mxGeometry>
        </mxCell>
        <mxCell id="xqiQ21x0fGV3KOlMGPGb-9" value="include" style="html=1;verticalAlign=bottom;endArrow=open;dashed=1;endSize=8;entryX=0;entryY=0.5;entryDx=0;entryDy=0;exitX=1;exitY=0.5;exitDx=0;exitDy=0;" parent="1" source="xqiQ21x0fGV3KOlMGPGb-1" target="xqiQ21x0fGV3KOlMGPGb-3" edge="1">
          <mxGeometry relative="1" as="geometry">
            <mxPoint x="430" y="265" as="sourcePoint" />
            <mxPoint x="500" y="125" as="targetPoint" />
          </mxGeometry>
        </mxCell>
        <mxCell id="xqiQ21x0fGV3KOlMGPGb-10" value="include" style="html=1;verticalAlign=bottom;endArrow=open;dashed=1;endSize=8;entryX=0;entryY=0.5;entryDx=0;entryDy=0;exitX=1;exitY=0.5;exitDx=0;exitDy=0;" parent="1" source="xqiQ21x0fGV3KOlMGPGb-1" target="xqiQ21x0fGV3KOlMGPGb-4" edge="1">
          <mxGeometry relative="1" as="geometry">
            <mxPoint x="460" y="260" as="sourcePoint" />
            <mxPoint x="510" y="135" as="targetPoint" />
          </mxGeometry>
        </mxCell>
        <mxCell id="xqiQ21x0fGV3KOlMGPGb-11" value="include" style="html=1;verticalAlign=bottom;endArrow=open;dashed=1;endSize=8;entryX=0;entryY=0.5;entryDx=0;entryDy=0;exitX=1;exitY=0.5;exitDx=0;exitDy=0;" parent="1" source="xqiQ21x0fGV3KOlMGPGb-1" target="xqiQ21x0fGV3KOlMGPGb-5" edge="1">
          <mxGeometry relative="1" as="geometry">
            <mxPoint x="420" y="300" as="sourcePoint" />
            <mxPoint x="520" y="145" as="targetPoint" />
          </mxGeometry>
        </mxCell>
        <mxCell id="xqiQ21x0fGV3KOlMGPGb-12" value="Авторизация с БД" style="ellipse;whiteSpace=wrap;html=1;" parent="1" vertex="1">
          <mxGeometry x="260" y="90" width="140" height="70" as="geometry" />
        </mxCell>
        <mxCell id="xqiQ21x0fGV3KOlMGPGb-13" value="" style="endArrow=classic;html=1;entryX=0;entryY=0.5;entryDx=0;entryDy=0;" parent="1" target="xqiQ21x0fGV3KOlMGPGb-12" edge="1">
          <mxGeometry width="50" height="50" relative="1" as="geometry">
            <mxPoint x="160" y="255" as="sourcePoint" />
            <mxPoint x="270" y="265" as="targetPoint" />
          </mxGeometry>
        </mxCell>
        <mxCell id="85FI1tHs7YjN2u3SJlDD-1" value="Клиент" style="shape=umlActor;verticalLabelPosition=bottom;labelBackgroundColor=#ffffff;verticalAlign=top;html=1;outlineConnect=0;" parent="1" vertex="1">
          <mxGeometry x="958" y="621" width="30" height="60" as="geometry" />
        </mxCell>
        <mxCell id="85FI1tHs7YjN2u3SJlDD-3" value="Использование чата" style="ellipse;whiteSpace=wrap;html=1;" parent="1" vertex="1">
          <mxGeometry x="1098" y="725" width="140" height="70" as="geometry" />
        </mxCell>
        <mxCell id="85FI1tHs7YjN2u3SJlDD-5" value="" style="endArrow=classic;html=1;entryX=0;entryY=0.5;entryDx=0;entryDy=0;" parent="1" target="85FI1tHs7YjN2u3SJlDD-3" edge="1">
          <mxGeometry width="50" height="50" relative="1" as="geometry">
            <mxPoint x="998" y="656" as="sourcePoint" />
            <mxPoint x="1068" y="591" as="targetPoint" />
          </mxGeometry>
        </mxCell>
        <mxCell id="UM9hcY5EQKEuTIKxdmUp-1" value="Системный администратор" style="shape=umlActor;verticalLabelPosition=bottom;labelBackgroundColor=#ffffff;verticalAlign=top;html=1;" parent="1" vertex="1">
          <mxGeometry x="958" y="108" width="30" height="60" as="geometry" />
        </mxCell>
        <mxCell id="UM9hcY5EQKEuTIKxdmUp-2" value="Мониторинг" style="ellipse;whiteSpace=wrap;html=1;" parent="1" vertex="1">
          <mxGeometry x="1168" y="181" width="140" height="70" as="geometry" />
        </mxCell>
        <mxCell id="UM9hcY5EQKEuTIKxdmUp-3" value="" style="endArrow=classic;html=1;entryX=0;entryY=0.5;entryDx=0;entryDy=0;" parent="1" target="UM9hcY5EQKEuTIKxdmUp-2" edge="1">
          <mxGeometry width="50" height="50" relative="1" as="geometry">
            <mxPoint x="1013" y="138" as="sourcePoint" />
            <mxPoint x="1084" y="-6" as="targetPoint" />
          </mxGeometry>
        </mxCell>
        <mxCell id="UM9hcY5EQKEuTIKxdmUp-4" value="Инвентаризация" style="ellipse;whiteSpace=wrap;html=1;" parent="1" vertex="1">
          <mxGeometry x="1168" y="2" width="140" height="70" as="geometry" />
        </mxCell>
        <mxCell id="UM9hcY5EQKEuTIKxdmUp-5" value="" style="endArrow=classic;html=1;entryX=0;entryY=0.5;entryDx=0;entryDy=0;" parent="1" target="UM9hcY5EQKEuTIKxdmUp-4" edge="1">
          <mxGeometry width="50" height="50" relative="1" as="geometry">
            <mxPoint x="1015" y="138" as="sourcePoint" />
            <mxPoint x="1124" y="149" as="targetPoint" />
          </mxGeometry>
        </mxCell>
        <mxCell id="UM9hcY5EQKEuTIKxdmUp-6" value="Передача данных серверному приложению" style="ellipse;whiteSpace=wrap;html=1;" parent="1" vertex="1">
          <mxGeometry x="1098" y="621" width="140" height="70" as="geometry" />
        </mxCell>
        <mxCell id="UM9hcY5EQKEuTIKxdmUp-7" value="" style="endArrow=classic;html=1;entryX=0;entryY=0.5;entryDx=0;entryDy=0;" parent="1" target="UM9hcY5EQKEuTIKxdmUp-6" edge="1">
          <mxGeometry width="50" height="50" relative="1" as="geometry">
            <mxPoint x="1000" y="656" as="sourcePoint" />
            <mxPoint x="1109" y="479" as="targetPoint" />
          </mxGeometry>
        </mxCell>
        <mxCell id="UM9hcY5EQKEuTIKxdmUp-11" value="Запросы" style="ellipse;whiteSpace=wrap;html=1;" parent="1" vertex="1">
          <mxGeometry x="1168" y="269" width="140" height="70" as="geometry" />
        </mxCell>
        <mxCell id="UM9hcY5EQKEuTIKxdmUp-12" value="" style="endArrow=classic;html=1;entryX=0;entryY=0.5;entryDx=0;entryDy=0;" parent="1" target="UM9hcY5EQKEuTIKxdmUp-11" edge="1">
          <mxGeometry width="50" height="50" relative="1" as="geometry">
            <mxPoint x="1014" y="139" as="sourcePoint" />
            <mxPoint x="1035" y="-62" as="targetPoint" />
          </mxGeometry>
        </mxCell>
        <mxCell id="UM9hcY5EQKEuTIKxdmUp-14" value="Подключение БД" style="ellipse;whiteSpace=wrap;html=1;" parent="1" vertex="1">
          <mxGeometry x="1168" y="-86" width="140" height="70" as="geometry" />
        </mxCell>
        <mxCell id="UM9hcY5EQKEuTIKxdmUp-15" value="" style="endArrow=classic;html=1;entryX=0;entryY=0.5;entryDx=0;entryDy=0;" parent="1" target="UM9hcY5EQKEuTIKxdmUp-14" edge="1">
          <mxGeometry width="50" height="50" relative="1" as="geometry">
            <mxPoint x="1013" y="138" as="sourcePoint" />
            <mxPoint x="1133" y="37" as="targetPoint" />
          </mxGeometry>
        </mxCell>
        <mxCell id="6McToOJdUwoFlGP611wf-1" value="Логирование" style="ellipse;whiteSpace=wrap;html=1;" parent="1" vertex="1">
          <mxGeometry x="1168" y="92" width="140" height="70" as="geometry" />
        </mxCell>
        <mxCell id="6McToOJdUwoFlGP611wf-3" value="" style="endArrow=classic;html=1;entryX=0;entryY=0.5;entryDx=0;entryDy=0;" parent="1" target="6McToOJdUwoFlGP611wf-1" edge="1">
          <mxGeometry width="50" height="50" relative="1" as="geometry">
            <mxPoint x="1016" y="137" as="sourcePoint" />
            <mxPoint x="1133" y="108" as="targetPoint" />
          </mxGeometry>
        </mxCell>
        <mxCell id="kHR5u_ve1j4h8sNOk4RN-1" value="Подключение к серверному приложению" style="ellipse;whiteSpace=wrap;html=1;" vertex="1" parent="1">
          <mxGeometry x="1098" y="512" width="140" height="70" as="geometry" />
        </mxCell>
        <mxCell id="kHR5u_ve1j4h8sNOk4RN-2" value="" style="endArrow=classic;html=1;entryX=0;entryY=0.5;entryDx=0;entryDy=0;" edge="1" parent="1" target="kHR5u_ve1j4h8sNOk4RN-1">
          <mxGeometry width="50" height="50" relative="1" as="geometry">
            <mxPoint x="998" y="656" as="sourcePoint" />
            <mxPoint x="1076" y="563" as="targetPoint" />
          </mxGeometry>
        </mxCell>
      </root>
    </mxGraphModel>
  </diagram>
</mxfile>
